<mxfile host="app.diagrams.net" agent="Mozilla/5.0 (Macintosh; Intel Mac OS X 10_15_7) AppleWebKit/537.36 (KHTML, like Gecko) Chrome/130.0.0.0 Safari/537.36" version="24.8.4">
  <diagram name="第 1 页" id="zMMZFU8kuMQ3PgCF7L6h">
    <mxGraphModel dx="1242" dy="785" grid="1" gridSize="10" guides="1" tooltips="1" connect="1" arrows="1" fold="1" page="1" pageScale="1" pageWidth="827" pageHeight="1169" math="0" shadow="0">
      <root>
        <mxCell id="0" />
        <mxCell id="1" parent="0" />
        <mxCell id="ZNsw2Lb3vmknDcRQJszT-5" value="" style="edgeStyle=orthogonalEdgeStyle;rounded=0;orthogonalLoop=1;jettySize=auto;html=1;" edge="1" parent="1" source="ZNsw2Lb3vmknDcRQJszT-1" target="ZNsw2Lb3vmknDcRQJszT-2">
          <mxGeometry relative="1" as="geometry" />
        </mxCell>
        <mxCell id="ZNsw2Lb3vmknDcRQJszT-1" value="workLoopSync" style="rounded=1;whiteSpace=wrap;html=1;" vertex="1" parent="1">
          <mxGeometry x="190" y="160" width="120" height="50" as="geometry" />
        </mxCell>
        <mxCell id="ZNsw2Lb3vmknDcRQJszT-6" value="" style="edgeStyle=orthogonalEdgeStyle;rounded=0;orthogonalLoop=1;jettySize=auto;html=1;entryX=0;entryY=0.5;entryDx=0;entryDy=0;" edge="1" parent="1" source="ZNsw2Lb3vmknDcRQJszT-2" target="ZNsw2Lb3vmknDcRQJszT-9">
          <mxGeometry relative="1" as="geometry">
            <mxPoint x="340" y="305" as="targetPoint" />
          </mxGeometry>
        </mxCell>
        <mxCell id="ZNsw2Lb3vmknDcRQJszT-7" value="" style="edgeStyle=orthogonalEdgeStyle;rounded=0;orthogonalLoop=1;jettySize=auto;html=1;" edge="1" parent="1" source="ZNsw2Lb3vmknDcRQJszT-2" target="ZNsw2Lb3vmknDcRQJszT-4">
          <mxGeometry relative="1" as="geometry" />
        </mxCell>
        <mxCell id="ZNsw2Lb3vmknDcRQJszT-8" style="edgeStyle=orthogonalEdgeStyle;rounded=0;orthogonalLoop=1;jettySize=auto;html=1;exitX=0;exitY=0.5;exitDx=0;exitDy=0;entryX=0;entryY=0.5;entryDx=0;entryDy=0;" edge="1" parent="1" source="ZNsw2Lb3vmknDcRQJszT-2" target="ZNsw2Lb3vmknDcRQJszT-1">
          <mxGeometry relative="1" as="geometry">
            <Array as="points">
              <mxPoint x="130" y="305" />
              <mxPoint x="130" y="185" />
            </Array>
          </mxGeometry>
        </mxCell>
        <mxCell id="ZNsw2Lb3vmknDcRQJszT-2" value="performUnitOfWork" style="rounded=1;whiteSpace=wrap;html=1;" vertex="1" parent="1">
          <mxGeometry x="190" y="280" width="120" height="50" as="geometry" />
        </mxCell>
        <mxCell id="ZNsw2Lb3vmknDcRQJszT-4" value="completeUnitOfWork" style="rounded=1;whiteSpace=wrap;html=1;" vertex="1" parent="1">
          <mxGeometry x="190" y="430" width="120" height="50" as="geometry" />
        </mxCell>
        <mxCell id="ZNsw2Lb3vmknDcRQJszT-15" value="" style="edgeStyle=orthogonalEdgeStyle;rounded=0;orthogonalLoop=1;jettySize=auto;html=1;" edge="1" parent="1" source="ZNsw2Lb3vmknDcRQJszT-9" target="ZNsw2Lb3vmknDcRQJszT-14">
          <mxGeometry relative="1" as="geometry" />
        </mxCell>
        <mxCell id="ZNsw2Lb3vmknDcRQJszT-16" value="处理当前节点，更新子节点" style="edgeLabel;html=1;align=center;verticalAlign=middle;resizable=0;points=[];" vertex="1" connectable="0" parent="ZNsw2Lb3vmknDcRQJszT-15">
          <mxGeometry x="-0.2" y="-1" relative="1" as="geometry">
            <mxPoint x="85" y="-10" as="offset" />
          </mxGeometry>
        </mxCell>
        <mxCell id="ZNsw2Lb3vmknDcRQJszT-9" value="beginWork" style="text;html=1;align=center;verticalAlign=middle;whiteSpace=wrap;rounded=0;" vertex="1" parent="1">
          <mxGeometry x="381" y="290" width="66" height="30" as="geometry" />
        </mxCell>
        <mxCell id="ZNsw2Lb3vmknDcRQJszT-23" value="" style="edgeStyle=orthogonalEdgeStyle;rounded=0;orthogonalLoop=1;jettySize=auto;html=1;" edge="1" parent="1" source="ZNsw2Lb3vmknDcRQJszT-10" target="ZNsw2Lb3vmknDcRQJszT-22">
          <mxGeometry relative="1" as="geometry" />
        </mxCell>
        <mxCell id="ZNsw2Lb3vmknDcRQJszT-10" value="completeWork" style="rounded=1;whiteSpace=wrap;html=1;" vertex="1" parent="1">
          <mxGeometry x="294" y="520" width="120" height="50" as="geometry" />
        </mxCell>
        <mxCell id="ZNsw2Lb3vmknDcRQJszT-11" value="while(workInProgress !== null)" style="text;html=1;align=center;verticalAlign=middle;whiteSpace=wrap;rounded=0;" vertex="1" parent="1">
          <mxGeometry x="250" y="230" width="190" height="30" as="geometry" />
        </mxCell>
        <mxCell id="ZNsw2Lb3vmknDcRQJszT-14" value="返回 child/null" style="text;html=1;align=center;verticalAlign=middle;whiteSpace=wrap;rounded=0;" vertex="1" parent="1">
          <mxGeometry x="374" y="350" width="80" height="30" as="geometry" />
        </mxCell>
        <mxCell id="ZNsw2Lb3vmknDcRQJszT-18" value="if (next === null)" style="text;html=1;align=center;verticalAlign=middle;whiteSpace=wrap;rounded=0;" vertex="1" parent="1">
          <mxGeometry x="250" y="360" width="100" height="30" as="geometry" />
        </mxCell>
        <mxCell id="ZNsw2Lb3vmknDcRQJszT-19" value="if (next !== null)&lt;div&gt;workInProgress = next&lt;/div&gt;&lt;div&gt;(继续循环)&lt;/div&gt;" style="text;html=1;align=center;verticalAlign=middle;whiteSpace=wrap;rounded=0;" vertex="1" parent="1">
          <mxGeometry x="60" y="320" width="140" height="30" as="geometry" />
        </mxCell>
        <mxCell id="ZNsw2Lb3vmknDcRQJszT-21" style="edgeStyle=orthogonalEdgeStyle;rounded=0;orthogonalLoop=1;jettySize=auto;html=1;exitX=0.5;exitY=1;exitDx=0;exitDy=0;entryX=1;entryY=0.5;entryDx=0;entryDy=0;" edge="1" parent="1" source="ZNsw2Lb3vmknDcRQJszT-4" target="ZNsw2Lb3vmknDcRQJszT-4">
          <mxGeometry relative="1" as="geometry">
            <Array as="points">
              <mxPoint x="250" y="780" />
              <mxPoint x="520" y="780" />
              <mxPoint x="520" y="455" />
            </Array>
          </mxGeometry>
        </mxCell>
        <mxCell id="ZNsw2Lb3vmknDcRQJszT-22" value="完成当前节点" style="text;html=1;align=center;verticalAlign=middle;whiteSpace=wrap;rounded=0;" vertex="1" parent="1">
          <mxGeometry x="314" y="590" width="80" height="30" as="geometry" />
        </mxCell>
        <mxCell id="ZNsw2Lb3vmknDcRQJszT-24" value="检查 sibling 节点&lt;div&gt;&lt;div&gt;有：workInProgress = sibling&lt;/div&gt;&lt;div&gt;无：completedWork = return&lt;/div&gt;&lt;/div&gt;" style="text;html=1;align=left;verticalAlign=middle;whiteSpace=wrap;rounded=0;" vertex="1" parent="1">
          <mxGeometry x="270" y="650" width="190" height="70" as="geometry" />
        </mxCell>
        <mxCell id="ZNsw2Lb3vmknDcRQJszT-26" value="继续循环直到 completedWork === null" style="text;html=1;align=center;verticalAlign=middle;whiteSpace=wrap;rounded=0;" vertex="1" parent="1">
          <mxGeometry x="380" y="390" width="230" height="30" as="geometry" />
        </mxCell>
      </root>
    </mxGraphModel>
  </diagram>
</mxfile>
